#Comment line ignore any data following # character 
#Hierarchical Translation and Rotation (.htr) file 
[Header]	
#Header keywords are followed by a single value 
FileType HTR		#Single word string
DataType HTRS		#Translation followed by rotation and scale data
FileVersion 1		#integer
NumSegments 25		#integer
NumFrames 4		#integer
DataFrameRate 30		#integer, data frame rate in this file
EulerRotationOrder ZYX
CalibrationUnits mm
RotationUnits Degrees
GlobalAxisofGravity Y
BoneLengthAxis Y
ScaleFactor 1.00
[SegmentNames&Hierarchy]
#CHILD	PARENT
BN_Tick_Root GLOBAL
BN_Torso BN_Tick_Root
BN_L_Leg_Front01 BN_Torso
BN_L_Leg_Rear01 BN_Torso
BN_MetalTop BN_Torso
BN_Neck BN_Torso
BN_R_Leg_Front01 BN_Torso
BN_R_Leg_Rear01 BN_Torso
BN_Sack BN_Torso
BN_L_Leg_Front02 BN_L_Leg_Front01
BN_L_Leg_Front03 BN_L_Leg_Front02
BN_L_Leg_Rear02 BN_L_Leg_Rear01
BN_L_Leg_Rear03 BN_L_Leg_Rear02
BN_Head BN_Neck
BN_Needle BN_Head
BN_R_Leg_Front02 BN_R_Leg_Front01
BN_R_Leg_Front03 BN_R_Leg_Front02
BN_R_Leg_Rear02 BN_R_Leg_Rear01
BN_R_Leg_Rear03 BN_R_Leg_Rear02
BN_SackDef01 BN_Sack
BN_SackDef02 BN_Sack
BN_SackDef03 BN_Sack
BN_SackDef04 BN_Sack
BN_SackDef05 BN_Sack
BN_SackDef06 BN_Sack
[BasePosition]
#SegmentName Tx, Ty, Tz, Rx, Ry, Rz, BoneLength
BN_Tick_Root 0.000000 0.000000 0.000000 -90.000000 0.000000 0.000000 10.000000 
BN_Torso 0.000000 0.000000 0.000000 0.000000 0.000000 0.000000 10.000000 
BN_L_Leg_Front01 0.000000 0.000000 0.000000 0.000000 0.000000 0.000000 10.000000 
BN_L_Leg_Rear01 0.000000 0.000000 0.000000 0.000000 0.000000 0.000000 10.000000 
BN_MetalTop 0.000000 0.000000 0.000000 0.000000 0.000000 0.000000 10.000000 
BN_Neck 0.000000 0.000000 0.000000 0.000000 0.000000 0.000000 10.000000 
BN_R_Leg_Front01 0.000000 0.000000 0.000000 0.000000 0.000000 0.000000 10.000000 
BN_R_Leg_Rear01 0.000000 0.000000 0.000000 0.000000 0.000000 0.000000 10.000000 
BN_Sack 0.000000 0.000000 0.000000 0.000000 0.000000 0.000000 10.000000 
BN_L_Leg_Front02 0.000000 0.000000 0.000000 0.000000 0.000000 0.000000 10.000000 
BN_L_Leg_Front03 0.000000 0.000000 0.000000 0.000000 0.000000 0.000000 10.000000 
BN_L_Leg_Rear02 0.000000 0.000000 0.000000 0.000000 0.000000 0.000000 10.000000 
BN_L_Leg_Rear03 0.000000 0.000000 0.000000 0.000000 0.000000 0.000000 10.000000 
BN_Head 0.000000 0.000000 0.000000 0.000000 0.000000 0.000000 10.000000 
BN_Needle 0.000000 0.000000 0.000000 0.000000 0.000000 0.000000 10.000000 
BN_R_Leg_Front02 0.000000 0.000000 0.000000 0.000000 0.000000 0.000000 10.000000 
BN_R_Leg_Front03 0.000000 0.000000 0.000000 0.000000 0.000000 0.000000 10.000000 
BN_R_Leg_Rear02 0.000000 0.000000 0.000000 0.000000 0.000000 0.000000 10.000000 
BN_R_Leg_Rear03 0.000000 0.000000 0.000000 0.000000 0.000000 0.000000 10.000000 
BN_SackDef01 0.000000 0.000000 0.000000 0.000000 0.000000 0.000000 10.000000 
BN_SackDef02 0.000000 0.000000 0.000000 0.000000 0.000000 0.000000 10.000000 
BN_SackDef03 0.000000 0.000000 0.000000 0.000000 0.000000 0.000000 10.000000 
BN_SackDef04 0.000000 0.000000 0.000000 0.000000 0.000000 0.000000 10.000000 
BN_SackDef05 0.000000 0.000000 0.000000 0.000000 0.000000 0.000000 10.000000 
BN_SackDef06 0.000000 0.000000 0.000000 0.000000 0.000000 0.000000 10.000000 
#Beginning of Data. Separated by tabs
#Fr	Tx	Ty	Tz	Rx	Ry	Rz	SF
[BN_Tick_Root]
7 0.000000 0.000000 0.000000 0.000000 0.000000 -0.000020 0.000000
8 0.000000 0.000000 0.000000 0.000000 0.000000 -0.000020 0.000000
9 0.000000 0.000000 0.000000 0.000000 0.000000 -0.000020 0.000000
10 0.000000 0.000000 0.000000 0.000000 0.000000 -0.000020 0.000000
[BN_Torso]
7 10.022040 31.810827 213.988907 -17.733164 -1.999103 4.209728 216.572433
8 10.022038 31.810827 213.342606 -19.497650 -2.779879 4.299999 215.933884
9 10.022038 31.810827 212.696304 -21.259020 -3.563577 4.376656 215.295349
10 6.570756 31.810823 208.113708 -21.751116 -3.624516 3.736897 210.633377
[BN_L_Leg_Front01]
7 -68.477791 10.734189 -26.804373 -65.743874 36.754456 131.643967 74.316254
8 -68.477791 10.734189 -26.804373 -66.462112 33.907524 131.339493 74.316254
9 -68.477791 10.734189 -26.804373 -67.139885 31.059633 131.086365 74.316254
10 -68.477791 10.734189 -26.804373 -67.691040 36.695107 131.117798 74.316254
[BN_L_Leg_Rear01]
7 -72.133743 -73.994843 -18.268616 30.587025 61.723492 -165.339340 104.939293
8 -72.133743 -73.994843 -18.268616 26.505562 61.440968 -168.753113 104.939293
9 -72.133743 -73.994843 -18.268616 22.510950 61.044907 -172.079269 104.939293
10 -72.133743 -73.994843 -18.268616 21.928637 61.453369 -170.975830 104.939293
[BN_MetalTop]
7 0.000008 13.737477 26.403606 92.251366 -17.585709 -97.417938 29.763546
8 0.000008 13.737477 26.403606 92.251366 -17.585709 -97.417938 29.763546
9 0.000008 13.737477 26.403606 92.251366 -17.585709 -97.417938 29.763546
10 0.000008 13.737477 26.403606 92.251366 -17.585709 -97.417938 29.763546
[BN_Neck]
7 0.000014 95.233284 10.002091 -89.999672 -65.297531 89.999657 95.757088
8 0.000014 95.233284 10.002091 -89.999672 -65.297531 89.999657 95.757088
9 0.000014 95.233284 10.002091 -89.999672 -65.297531 89.999657 95.757088
10 0.000014 95.233284 10.002091 -89.999672 -65.297531 89.999657 95.757088
[BN_R_Leg_Front01]
7 68.477768 10.734107 -26.804314 71.043404 46.455154 49.511200 74.316193
8 68.477768 10.734107 -26.804314 73.433098 45.523449 51.618816 74.316193
9 68.477768 10.734107 -26.804314 75.732727 44.532921 53.634510 74.316193
10 68.477768 10.734107 -26.804314 76.037285 43.091869 53.645905 74.316193
[BN_R_Leg_Rear01]
7 72.133751 -73.994873 -18.268644 8.212317 76.588112 20.364180 104.939331
8 72.133751 -73.994873 -18.268644 17.573093 76.579041 29.658953 104.939331
9 72.133751 -73.994873 -18.268644 26.682627 76.223381 38.702480 104.939331
10 72.133751 -73.994873 -18.268644 23.458315 75.300743 37.482288 104.939331
[BN_Sack]
7 -0.000000 -78.024918 33.657791 91.379875 -11.014523 -97.199577 84.974907
8 -0.000000 -78.024918 33.657791 91.379875 -11.014524 -97.199570 84.974907
9 -0.000000 -78.024918 33.657791 91.379875 -11.014523 -97.199577 84.974907
10 -0.000000 -78.024918 33.657791 91.379875 -11.014524 -97.199577 84.974907
[BN_L_Leg_Front02]
7 142.805023 -0.000015 -0.000104 0.007403 0.717975 -132.871399 142.805023
8 142.805023 -0.000015 -0.000104 -0.042846 0.789595 -139.282379 142.805023
9 142.805023 -0.000015 -0.000104 -0.105921 0.857022 -146.344025 142.805023
10 142.805023 -0.000015 -0.000104 -0.123210 0.877022 -148.112381 142.805023
[BN_L_Leg_Front03]
7 124.143021 -0.000045 0.000007 0.351156 -0.302978 137.626022 124.143021
8 124.143021 -0.000045 0.000007 0.350800 -0.276961 141.851334 124.143021
9 124.143021 -0.000045 0.000007 0.352359 -0.251023 146.070953 124.143021
10 124.143021 -0.000045 0.000007 0.352134 -0.243145 147.052139 124.143021
[BN_L_Leg_Rear02]
7 139.939041 0.000075 -0.000022 0.087309 -0.231776 94.129288 139.939041
8 139.939041 0.000075 -0.000022 0.089852 -0.236374 93.944496 139.939041
9 139.939041 0.000075 -0.000022 0.092409 -0.240965 93.759682 139.939041
10 139.939041 0.000075 -0.000022 0.084464 -0.233182 95.236107 139.939041
[BN_L_Leg_Rear03]
7 142.839615 0.000179 -0.000060 0.000462 -0.002301 -112.689354 142.839615
8 142.839615 0.000179 -0.000060 0.000457 -0.002302 -112.475319 142.839615
9 142.839615 0.000179 -0.000060 0.000453 -0.002303 -112.261292 142.839615
10 142.839615 0.000179 -0.000060 0.000487 -0.002296 -113.942581 142.839615
[BN_Head]
7 57.062447 -0.000030 0.000000 7.140118 -1.195058 -3.225041 57.062447
8 57.062447 -0.000030 0.000000 11.907172 -4.800681 -3.191973 57.062447
9 57.062447 -0.000030 0.000000 11.158792 -2.999872 -5.020133 57.062447
10 57.062447 -0.000030 0.000000 10.474951 -2.214393 -5.602842 57.062447
[BN_Needle]
7 33.915161 69.677544 -0.000060 0.000003 0.000030 87.896805 77.493217
8 33.915161 69.677544 -0.000060 0.000003 0.000030 87.896805 77.493217
9 33.915161 69.677544 -0.000060 0.000003 0.000030 87.896805 77.493217
10 33.915161 69.677544 -0.000060 0.000003 0.000030 87.896805 77.493217
[BN_R_Leg_Front02]
7 142.804947 -0.000060 0.000060 -0.080561 0.597673 121.332222 142.804947
8 142.804947 -0.000060 0.000060 -0.082320 0.595272 121.114624 142.804947
9 142.804947 -0.000060 0.000060 -0.084070 0.592863 120.897026 142.804947
10 142.804947 -0.000060 0.000060 -0.080970 0.596539 121.314064 142.804947
[BN_R_Leg_Front03]
7 124.143005 -0.000060 -0.000156 -0.354250 -0.347872 -128.954132 124.143005
8 124.143005 -0.000060 -0.000156 -0.353301 -0.348036 -128.776871 124.143005
9 124.143005 -0.000060 -0.000156 -0.352352 -0.348203 -128.599594 124.143005
10 124.143005 -0.000060 -0.000156 -0.353543 -0.348191 -128.942139 124.143005
[BN_R_Leg_Rear02]
7 139.939011 -0.000149 0.000015 0.004125 -0.249095 -120.619629 139.939011
8 139.939011 -0.000149 0.000015 0.000392 -0.254226 -119.395477 139.939011
9 139.939011 -0.000149 0.000015 -0.003449 -0.259276 -118.171494 139.939011
10 139.939011 -0.000149 0.000015 0.001071 -0.260559 -119.226433 139.939011
[BN_R_Leg_Rear03]
7 142.839417 0.000075 0.000119 0.002145 -0.000954 137.939026 142.839417
8 142.839417 0.000075 0.000119 0.002153 -0.000936 136.999619 142.839417
9 142.839417 0.000075 0.000119 0.002160 -0.000918 136.060272 142.839417
10 142.839417 0.000075 0.000119 0.002154 -0.000934 136.881866 142.839417
[BN_SackDef01]
7 249.782272 -3.760844 42.949425 -128.408218 -44.374973 -11.740845 253.475800
8 249.782272 -3.760844 42.949425 -128.408218 -44.374973 -11.740845 253.475800
9 249.782272 -3.760844 42.949425 -128.408218 -44.374973 -11.740845 253.475800
10 249.782272 -3.760844 42.949425 -128.408218 -44.374973 -11.740845 253.475800
[BN_SackDef02]
7 138.789795 -62.131748 45.674385 32.077126 -27.375721 -88.781525 158.773758
8 138.789795 -62.131748 45.674385 32.077126 -27.375721 -88.781525 158.773758
9 138.789795 -62.131748 45.674385 32.077126 -27.375721 -88.781525 158.773758
10 138.789795 -62.131748 45.674385 32.077126 -27.375721 -88.781525 158.773758
[BN_SackDef03]
7 249.782272 -3.760785 -42.949661 18.144459 44.375008 -11.740894 253.475845
8 249.782272 -3.760785 -42.949661 18.144459 44.375008 -11.740894 253.475845
9 249.782272 -3.760785 -42.949661 18.144459 44.375008 -11.740894 253.475845
10 249.782272 -3.760785 -42.949661 18.144459 44.375008 -11.740894 253.475845
[BN_SackDef04]
7 138.789780 -62.131645 -45.674473 146.059982 27.375723 -88.781555 158.773743
8 138.789780 -62.131645 -45.674473 146.059982 27.375723 -88.781555 158.773743
9 138.789780 -62.131645 -45.674473 146.059982 27.375723 -88.781555 158.773743
10 138.789780 -62.131645 -45.674473 146.059982 27.375723 -88.781555 158.773743
[BN_SackDef05]
7 118.790161 46.167137 -63.831196 0.155741 51.314110 90.605110 142.537460
8 118.790161 46.167137 -63.831196 0.155741 51.314110 90.605110 142.537460
9 118.790161 46.167137 -63.831196 0.155741 51.314110 90.605110 142.537460
10 118.790161 46.167137 -63.831196 0.155741 51.314110 90.605110 142.537460
[BN_SackDef06]
7 118.790207 46.167194 63.831219 152.058487 -51.314072 90.605019 142.537537
8 118.790207 46.167194 63.831219 152.058487 -51.314072 90.605019 142.537537
9 118.790207 46.167194 63.831219 152.058487 -51.314072 90.605019 142.537537
10 118.790207 46.167194 63.831219 152.058487 -51.314072 90.605019 142.537537
